HIERARCHY
ROOT joint_Root
{
	OFFSET 0.0 0.0 0.0
	CHANNELS 6 Xposition Yposition Zposition Zrotation Xrotation Yrotation 
	JOINT Hips
	{
		OFFSET -17.1583 93.1646 452.98
		CHANNELS 6 Xposition Yposition Zposition Zrotation Xrotation Yrotation 
		JOINT Spine
		{
			OFFSET 15.7357 0.0 0.0
			CHANNELS 6 Xposition Yposition Zposition Zrotation Xrotation Yrotation 
			JOINT Chest
			{
				OFFSET 8.98455 -0.406207 0.0
				CHANNELS 6 Xposition Yposition Zposition Zrotation Xrotation Yrotation 
				JOINT Neck
				{
					OFFSET 16.3773 0.0 0.0
					CHANNELS 6 Xposition Yposition Zposition Zrotation Xrotation Yrotation 
					JOINT Head
					{
						OFFSET 6.45672 0.0 0.0
						CHANNELS 6 Xposition Yposition Zposition Zrotation Xrotation Yrotation 
						End Site
						{
							OFFSET 0.0 0.0 0.0
						}
					}
				}
				JOINT Shoulder_L
				{
					OFFSET 12.9942 -0.242716 4.98039
					CHANNELS 6 Xposition Yposition Zposition Zrotation Xrotation Yrotation 
					JOINT UpperArm_L
					{
						OFFSET 5.34809 0.0 0.0
						CHANNELS 6 Xposition Yposition Zposition Zrotation Xrotation Yrotation 
						JOINT LowerArm_L
						{
							OFFSET 24.3286 1.87007e-05 0.0
							CHANNELS 6 Xposition Yposition Zposition Zrotation Xrotation Yrotation 
							JOINT Hand_L
							{
								OFFSET 22.2916 0.0 0.0
								CHANNELS 6 Xposition Yposition Zposition Zrotation Xrotation Yrotation 
								End Site
								{
									OFFSET 0.0 0.0 0.0
								}
							}
						}
					}
				}
				JOINT Shoulder_R
				{
					OFFSET 12.9945 -0.242716 -4.98039
					CHANNELS 6 Xposition Yposition Zposition Zrotation Xrotation Yrotation 
					JOINT UpperArm_R
					{
						OFFSET -5.34813 0.0 0.0
						CHANNELS 6 Xposition Yposition Zposition Zrotation Xrotation Yrotation 
						JOINT LowerArm_R
						{
							OFFSET -24.3289 0.000322201 0.0
							CHANNELS 6 Xposition Yposition Zposition Zrotation Xrotation Yrotation 
							JOINT Hand_R
							{
								OFFSET -22.2915 -0.000108084 0.0
								CHANNELS 6 Xposition Yposition Zposition Zrotation Xrotation Yrotation 
								End Site
								{
									OFFSET 0.0 0.0 0.0
								}
							}
						}
					}
				}
			}
		}
		JOINT UpperLeg_L
		{
			OFFSET -2.19248 -6.46944 0.0
			CHANNELS 6 Xposition Yposition Zposition Zrotation Xrotation Yrotation 
			JOINT LowerLeg_L
			{
				OFFSET 39.0811 0.0 -1.23785e-05
				CHANNELS 6 Xposition Yposition Zposition Zrotation Xrotation Yrotation 
				JOINT Foot_L
				{
					OFFSET 40.9854 0.0 -1.26872e-05
					CHANNELS 6 Xposition Yposition Zposition Zrotation Xrotation Yrotation 
					JOINT Toes_L
					{
						OFFSET 11.7543 0.0 0.0
						CHANNELS 6 Xposition Yposition Zposition Zrotation Xrotation Yrotation 
						End Site
						{
							OFFSET 0.0 0.0 0.0
						}
					}
				}
			}
		}
		JOINT UpperLeg_R
		{
			OFFSET -2.19251 6.46944 0.0
			CHANNELS 6 Xposition Yposition Zposition Zrotation Xrotation Yrotation 
			JOINT LowerLeg_R
			{
				OFFSET -39.0811 -0.00228153 -0.0401928
				CHANNELS 6 Xposition Yposition Zposition Zrotation Xrotation Yrotation 
				JOINT Foot_R
				{
					OFFSET -40.9854 0.0 0.0
					CHANNELS 6 Xposition Yposition Zposition Zrotation Xrotation Yrotation 
					JOINT Toes_R
					{
						OFFSET -11.7543 0.0 0.0
						CHANNELS 6 Xposition Yposition Zposition Zrotation Xrotation Yrotation 
						End Site
						{
							OFFSET 0.0 0.0 0.0
						}
					}
				}
			}
		}
	}
}
MOTION
Frames:	6
Frame Time:	0.0333333
0.000000 0.000000 0.000000 0.000000 0.000000 -0.000000 1.164510 92.966000 0.698212 87.894500 0.562475 2.120750 15.735700 0.000005 -0.000001 106.427000 87.862300 -105.837000 8.984550 -0.406207 -0.000000 -3.671180 1.149490 1.216750 16.377300 -0.000001 -0.000001 3.363470 0.883518 3.714650 6.456720 -0.000001 -0.000000 0.396400 1.578290 5.905810 12.994200 -0.242716 4.980390 -92.563200 7.523360 -71.123900 5.348090 -0.000007 -0.000001 -71.886400 5.514450 -4.750320 24.328600 0.000019 0.000005 4.399460 25.987000 -9.958790 22.291600 -0.000001 0.000005 -5.689190 5.072280 5.742760 12.994500 -0.242716 -4.980390 88.612200 4.789520 -73.820100 -5.348130 -0.000001 -0.000004 -73.149100 20.122800 -1.836200 -24.328900 0.000322 -0.000009 0.289018 1.147780 -14.183500 -22.291500 -0.000108 -0.000004 2.587440 5.279950 0.627568 -2.192480 -6.469440 -0.000000 -174.674000 -4.164920 -0.210515 39.081100 -0.000007 -0.000012 0.064236 -0.205633 17.348000 40.985400 -0.000006 -0.000013 0.415262 10.885200 -70.106400 11.754300 -0.000000 0.000003 -0.000806 0.180243 -9.265480 -2.192510 6.469440 -0.000001 175.516000 8.236870 -177.276000 -39.081100 -0.002282 -0.040193 -0.001802 0.025274 11.492800 -40.985400 0.000008 0.000006 -10.083600 7.894290 -65.711900 -11.754300 -0.000006 -0.000006 -0.012133 0.286607 -4.924640
0.000000 0.000000 0.000000 0.000000 0.000000 -0.000000 1.053830 92.987900 0.703055 87.848900 0.434705 1.725590 15.735700 0.000005 -0.000001 107.820000 87.924800 -107.091000 8.984550 -0.406207 -0.000000 -3.822350 1.195660 1.499300 16.377300 -0.000001 -0.000001 3.098350 0.827450 4.274170 6.456720 -0.000001 -0.000000 -0.315462 1.656290 6.958400 12.994200 -0.242716 4.980390 -92.548800 7.436110 -71.019000 5.348090 -0.000007 -0.000001 -70.347100 0.924368 -6.669540 24.328600 0.000019 0.000005 3.123950 27.203300 -6.808730 22.291600 -0.000001 0.000005 -7.077970 5.053470 6.159710 12.994500 -0.242716 -4.980390 88.694000 4.521160 -73.869000 -5.348130 -0.000001 -0.000004 -73.311800 18.889100 -1.745220 -24.328900 0.000322 -0.000009 0.166467 0.680072 -13.837000 -22.291500 -0.000108 -0.000004 2.752790 5.281950 0.572976 -2.192480 -6.469440 -0.000000 -174.580000 -4.222810 -0.509740 39.081100 -0.000007 -0.000012 0.065177 -0.210606 17.196100 40.985400 -0.000006 -0.000013 0.298248 10.819900 -70.184700 11.754300 -0.000000 0.000003 -0.001229 0.186241 -9.021700 -2.192510 6.469440 -0.000001 175.703000 7.907750 -177.618000 -39.081100 -0.002282 -0.040193 -0.001031 0.021888 11.284800 -40.985400 0.000008 0.000006 -10.328900 7.702520 -65.492600 -11.754300 -0.000006 -0.000006 -0.011771 0.284093 -5.027640
0.000000 0.000000 0.000000 0.000000 0.000000 -0.000000 0.882521 93.042300 0.709473 87.770200 0.284615 1.293650 15.735700 0.000005 -0.000001 108.551000 87.990900 -107.600000 8.984550 -0.406207 -0.000000 -3.966150 1.180210 1.944210 16.377300 -0.000001 -0.000001 2.600360 0.807298 4.871080 6.456720 -0.000001 -0.000000 -0.929821 1.908280 7.879610 12.994200 -0.242716 4.980390 -92.505900 7.279210 -70.945400 5.348090 -0.000007 -0.000001 -68.027000 -2.387180 -8.794750 24.328600 0.000019 0.000005 2.021380 30.676800 -3.958300 22.291600 -0.000001 0.000005 -9.824830 5.068980 5.813790 12.994500 -0.242716 -4.980390 88.742000 4.355140 -73.871300 -5.348130 -0.000001 -0.000004 -73.110600 17.937800 -1.777620 -24.328900 0.000322 -0.000009 0.187384 0.794286 -13.346000 -22.291500 -0.000108 -0.000004 2.907190 5.279660 0.635472 -2.192480 -6.469440 -0.000000 -174.363000 -4.617140 -0.639296 39.081100 -0.000007 -0.000012 0.060437 -0.201611 16.687200 40.985400 -0.000006 -0.000013 0.153420 11.069700 -70.083000 11.754300 -0.000000 0.000003 -0.001103 0.184489 -9.092900 -2.192510 6.469440 -0.000001 175.925000 7.627890 -177.916000 -39.081100 -0.002282 -0.040193 -0.000144 0.018069 10.906200 -40.985400 0.000008 0.000006 -10.872400 7.611950 -65.109700 -11.754300 -0.000006 -0.000006 -0.011990 0.285615 -4.965310
0.000000 0.000000 0.000000 0.000000 0.000000 -0.000000 0.639718 93.085100 0.750424 87.671300 0.063030 0.739923 15.735700 0.000005 -0.000001 109.256000 88.110300 -107.990000 8.984550 -0.406207 -0.000000 -4.209530 1.113270 2.573920 16.377300 -0.000001 -0.000001 2.084750 0.928575 5.344380 6.456720 -0.000001 -0.000000 -1.615240 2.219600 8.799980 12.994200 -0.242716 4.980390 -92.386600 6.830920 -70.688900 5.348090 -0.000007 -0.000001 -65.194000 -5.698660 -10.886500 24.328600 0.000019 0.000005 1.228410 35.766500 -2.101400 22.291600 -0.000001 0.000005 -14.240700 5.090910 5.320430 12.994500 -0.242716 -4.980390 88.775900 4.231570 -73.850400 -5.348130 -0.000001 -0.000004 -72.611700 17.018000 -1.769220 -24.328900 0.000322 -0.000009 0.232669 1.021910 -12.882800 -22.291500 -0.000108 -0.000004 2.943000 5.276230 0.729137 -2.192480 -6.469440 -0.000000 -174.019000 -5.610230 -0.885784 39.081100 -0.000007 -0.000012 0.052818 -0.181528 16.223100 40.985400 -0.000006 -0.000013 0.032990 11.832800 -69.972000 11.754300 -0.000000 0.000003 -0.001007 0.183132 -9.148060 -2.192510 6.469440 -0.000001 176.292000 7.297370 -178.564000 -39.081100 -0.002282 -0.040193 0.001899 0.007400 10.997600 -40.985400 0.000008 0.000006 -10.805200 7.473400 -65.018300 -11.754300 -0.000006 -0.000006 -0.011290 0.280702 -5.166480
0.000000 0.000000 0.000000 0.000000 0.000000 -0.000000 0.366193 93.146500 0.789361 87.615500 -0.104399 0.000392 15.735700 0.000005 -0.000001 108.354000 88.319900 -106.679000 8.984550 -0.406207 -0.000000 -4.587690 0.876674 3.387750 16.377300 -0.000001 -0.000001 1.529060 1.266780 5.589330 6.456720 -0.000001 -0.000000 -2.318500 2.707090 9.726350 12.994200 -0.242716 4.980390 -92.159400 6.076830 -70.394500 5.348090 -0.000007 -0.000001 -62.251000 -10.968800 -12.688200 24.328600 0.000019 0.000005 0.467552 38.303900 -0.754237 22.291600 -0.000001 0.000005 -17.340000 5.069600 5.801710 12.994500 -0.242716 -4.980390 88.793000 4.157050 -73.793800 -5.348130 -0.000001 -0.000004 -71.850200 15.465000 -1.667080 -24.328900 0.000322 -0.000009 0.298353 1.337280 -12.620700 -22.291500 -0.000108 -0.000004 3.168020 5.271570 0.855798 -2.192480 -6.469440 -0.000000 -173.733000 -6.632390 -1.189430 39.081100 -0.000007 -0.000012 0.046986 -0.169285 15.512400 40.985400 -0.000006 -0.000013 -0.139167 12.638800 -69.837400 11.754300 -0.000000 0.000003 -0.001090 0.184311 -9.100160 -2.192510 6.469440 -0.000001 176.639000 7.118190 -179.271000 -39.081100 -0.002282 -0.040193 0.004322 -0.005123 10.878900 -40.985400 0.000008 0.000006 -10.728300 7.417820 -64.942400 -11.754300 -0.000006 -0.000006 -0.011683 0.283477 -5.052840
0.000000 0.000000 0.000000 0.000000 0.000000 -0.000000 0.068264 93.179300 0.858487 87.661000 -0.215187 -0.726858 15.735700 0.000005 -0.000001 105.003000 88.506400 -102.854000 8.984550 -0.406207 -0.000000 -4.887210 0.535415 4.324540 16.377300 -0.000001 -0.000001 0.925088 1.770000 5.729540 6.456720 -0.000001 -0.000000 -3.100600 3.419430 10.347100 12.994200 -0.242716 4.980390 -91.915300 5.267260 -69.984900 5.348090 -0.000007 -0.000001 -59.186300 -17.654300 -14.422700 24.328600 0.000019 0.000005 0.000089 37.646000 -0.000005 22.291600 -0.000001 0.000005 -15.325900 4.993330 7.456110 12.994500 -0.242716 -4.980390 88.791800 4.122420 -73.649200 -5.348130 -0.000001 -0.000004 -70.873700 13.723000 -1.605220 -24.328900 0.000322 -0.000009 0.353659 1.589960 -12.577900 -22.291500 -0.000108 -0.000004 3.516100 5.269840 0.902724 -2.192480 -6.469440 -0.000000 -173.563000 -7.433130 -1.526240 39.081100 -0.000007 -0.000012 0.042097 -0.158480 14.876200 40.985400 -0.000006 -0.000013 -0.346784 13.317700 -69.643000 11.754300 -0.000000 0.000003 -0.001196 0.185786 -9.040210 -2.192510 6.469440 -0.000001 176.916000 7.163640 -179.832000 -39.081100 -0.002282 -0.040193 0.005876 -0.013574 10.589900 -40.985400 0.000008 0.000006 -10.283700 7.370840 -64.969600 -11.754300 -0.000006 -0.000006 -0.011208 0.280120 -5.190310
